<svg width="25" height="24" viewBox="0 0 25 24" fill="none" xmlns="http://www.w3.org/2000/svg">
<path d="M11.849 7.66287C12.4337 5.55069 14.3699 4 16.6682 4C19.4296 4 21.6682 6.23858 21.6682 9C21.6682 10.8508 20.6626 12.4667 19.168 13.3312M8.46797 20C5.817 20 3.66797 17.9466 3.66797 15.4137C3.66797 13.3144 5.26797 11.375 7.66797 11C8.4208 9.27403 10.2025 8 12.2806 8C14.9427 8 17.1184 9.99072 17.268 12.5C18.6807 13.0956 19.668 14.5574 19.668 16.1402C19.668 18.2719 17.8771 20 15.668 20L8.46797 20Z" stroke="#999999" stroke-width="2" stroke-linecap="round" stroke-linejoin="round"/>
</svg>
