<svg width="40" height="40" viewBox="0 0 40 40" fill="none" xmlns="http://www.w3.org/2000/svg">
<rect x="0.5" y="0.5" width="39" height="39" rx="19.5" fill="#FCFCFC"/>
<rect x="0.5" y="0.5" width="39" height="39" rx="19.5" stroke="#CCCCCC"/>
<path d="M18.7807 15.1147L14.8419 23.9772C14.3776 25.0219 14.1454 25.5442 14.2457 25.8494C14.3326 26.1136 14.5455 26.3171 14.8134 26.3918C15.1228 26.4782 15.634 26.2225 16.6566 25.7112L19.4029 24.3381C19.6215 24.2288 19.7308 24.1741 19.8455 24.1526C19.947 24.1335 20.0513 24.1335 20.1528 24.1526C20.2675 24.1741 20.3768 24.2288 20.5954 24.3381L23.3417 25.7112C24.3643 26.2225 24.8756 26.4782 25.1849 26.3918C25.4528 26.3171 25.6658 26.1136 25.7526 25.8494C25.8529 25.5442 25.6207 25.0219 25.1564 23.9771L21.2176 15.1147C20.8317 14.2465 20.6387 13.8124 20.3699 13.6788C20.1363 13.5628 19.862 13.5628 19.6284 13.6788C19.3596 13.8124 19.1666 14.2465 18.7807 15.1147Z" fill="#666666"/>
</svg>
