<svg width="25" height="24" viewBox="0 0 25 24" fill="none" xmlns="http://www.w3.org/2000/svg">
<path d="M3.33203 18C3.87203 18.5 4.41203 19 5.58203 19C7.83203 19 7.83203 17 10.082 17C11.252 17 11.792 17.5 12.332 18C12.872 18.5 13.412 19 14.582 19C16.832 19 16.832 17 19.082 17C20.252 17 20.792 17.5 21.332 18" stroke="#333333" stroke-width="2" stroke-linecap="round" stroke-linejoin="round"/>
<path d="M6.83203 18L4.83203 12.5L6.83203 11.3M12.332 8V13M12.332 8V5.5M12.332 8L6.83203 11.3M12.332 8L18.014 11.4092M18.832 17L19.832 12.5L18.014 11.4092M6.83203 11.3L7.33203 6L12.332 4L17.332 6L18.014 11.4092" stroke="#333333" stroke-width="2" stroke-linecap="round"/>
</svg>
