 <svg width="32" height="32" viewBox="0 0 32 32" fill="none" xmlns="http://www.w3.org/2000/svg">
<rect width="32" height="32" rx="16" fill="#5CA1F6"/>
<path d="M12.6562 18.7285L15.709 15.9219C16.0098 15.6328 16.2441 15.3945 16.4121 15.207C16.5801 15.0156 16.707 14.8242 16.793 14.6328C16.8828 14.4375 16.9277 14.2305 16.9277 14.0117C16.9277 13.7695 16.8691 13.5566 16.752 13.373C16.6348 13.1855 16.4746 13.043 16.2715 12.9453C16.0684 12.8477 15.8379 12.7988 15.5801 12.7988C15.3184 12.7988 15.0859 12.8516 14.8828 12.957C14.6836 13.0625 14.5293 13.2168 14.4199 13.4199C14.3145 13.6191 14.2617 13.8516 14.2617 14.1172H12.5859C12.5859 13.5742 12.7109 13.0977 12.9609 12.6875C13.2148 12.2734 13.5684 11.9551 14.0215 11.7324C14.4785 11.5098 15.0039 11.3984 15.5977 11.3984C16.1953 11.3984 16.7227 11.5039 17.1797 11.7148C17.6367 11.9258 17.9902 12.2207 18.2402 12.5996C18.4941 12.9785 18.6211 13.4121 18.6211 13.9004C18.6211 14.2324 18.5566 14.5527 18.4277 14.8613C18.3027 15.1699 18.0801 15.5117 17.7598 15.8867C17.4434 16.2617 16.9922 16.7148 16.4062 17.2461L15.1113 18.4941V18.5527H18.7441V20H12.6621L12.6562 18.7285Z" fill="white"/>
</svg>
