<svg width="32" height="32" viewBox="0 0 32 32" fill="none" xmlns="http://www.w3.org/2000/svg">
<rect width="32" height="32" rx="16" fill="#5CA1F6"/>
<path d="M15.8145 20.1172C15.1973 20.1172 14.6445 20.0117 14.1562 19.8008C13.668 19.5898 13.2852 19.293 13.0078 18.9102C12.7344 18.5273 12.5918 18.0938 12.5801 17.6094H14.3555C14.3672 17.8086 14.4375 17.9883 14.5664 18.1484C14.6953 18.3086 14.8691 18.4336 15.0879 18.5234C15.3066 18.6133 15.5488 18.6582 15.8145 18.6582C16.0918 18.6582 16.3418 18.6094 16.5645 18.5117C16.791 18.4102 16.9648 18.2734 17.0859 18.1016C17.207 17.9258 17.2656 17.7266 17.2617 17.5039C17.2656 17.2734 17.2031 17.0684 17.0742 16.8887C16.9453 16.709 16.7578 16.5703 16.5117 16.4727C16.2695 16.3711 15.9844 16.3203 15.6562 16.3203H14.8652V15.0195H15.6562C15.9336 15.0195 16.1816 14.9727 16.4004 14.8789C16.6191 14.7812 16.7871 14.6465 16.9043 14.4746C17.0215 14.3027 17.0781 14.1074 17.0742 13.8887C17.0781 13.6738 17.0293 13.4844 16.9277 13.3203C16.8262 13.1523 16.6797 13.0234 16.4883 12.9336C16.2969 12.8438 16.0781 12.7988 15.832 12.7988C15.582 12.7988 15.3535 12.8438 15.1465 12.9336C14.9395 13.0195 14.7715 13.1445 14.6426 13.3086C14.5176 13.4688 14.4492 13.6562 14.4375 13.8711H12.75C12.7656 13.3906 12.9082 12.9629 13.1777 12.5879C13.4473 12.2129 13.8125 11.9219 14.2734 11.7148C14.7383 11.5039 15.2578 11.3984 15.832 11.3984C16.4141 11.3984 16.9277 11.502 17.373 11.709C17.8184 11.916 18.1641 12.2012 18.4102 12.5645C18.6562 12.9277 18.7754 13.334 18.7676 13.7832C18.7754 14.0918 18.7109 14.373 18.5742 14.627C18.4414 14.8809 18.252 15.0898 18.0059 15.2539C17.7637 15.4141 17.4824 15.5234 17.1621 15.582V15.6465C17.5762 15.6973 17.9277 15.8125 18.2168 15.9922C18.5098 16.168 18.7305 16.3945 18.8789 16.6719C19.0273 16.9492 19.0977 17.2656 19.0898 17.6211C19.0977 18.0938 18.9609 18.5215 18.6797 18.9043C18.3984 19.2832 18.0078 19.5801 17.5078 19.7949C17.0078 20.0098 16.4434 20.1172 15.8145 20.1172Z" fill="white"/>
</svg>
