<svg width="150" height="20" viewBox="0 0 150 20" fill="none" xmlns="http://www.w3.org/2000/svg">
<path d="M14.2587 2.77932C16.2471 4.72351 15.7485 7.0305 15.7485 7.0305C15.7485 7.0305 14.8972 4.61949 12.9286 4.14187C10.9068 3.65135 8.88493 4.03287 6.70348 5.66794C5.5358 6.54316 4.78806 7.90253 4.41562 8.82907C3.9307 10.0354 3.7808 11.0406 4.04318 12.3172C4.256 13.3528 5.1073 14.3338 5.79898 14.7698C6.84708 15.4305 8.83172 15.5329 8.83172 15.5329C8.83172 15.5329 7.21861 15.8599 6.27783 15.8599C5.42653 15.8599 4.3801 15.7626 3.29829 15.0423C2.23417 14.3338 1.48705 13.6694 1.06363 12.2082C0.538488 10.396 0.904015 8.55656 1.54249 7.24851C2.55794 5.16813 4.3092 3.48785 5.32012 2.88832C7.04424 1.86583 7.87402 1.52576 9.68302 1.41676C11.2844 1.32027 13.0882 1.63477 14.2587 2.77932Z" fill="#333333"/>
<path d="M3.93725 17.0043C1.55128 16.2802 0.301501 13.934 0 12.7532C0.372443 15.1513 0.738103 15.8507 1.43656 17.1133C2.34107 18.7484 4.41611 19.6204 5.69305 19.8385C7.14464 20.0863 9.01877 20.0989 10.854 19.5114C12.5566 18.9664 17.3452 17.0043 19.7395 16.2413C21.25 15.7599 24.794 15.4238 26.4434 16.0233C27.7629 16.5029 29.0151 17.7855 29.423 18.3669C29.3698 17.2223 29.3698 16.7863 28.9973 15.0968C28.6249 13.4072 27.3615 11.9304 26.1774 11.2816C23.8895 10.028 22.0805 10.3551 19.8459 11.1181C17.0364 12.0774 13.1419 14.9332 11.3329 15.9688C9.52389 17.0043 6.81038 17.8764 3.93725 17.0043Z" fill="#333333"/>
<path d="M15.8015 2.54379C14.897 1.45374 12.9816 0.309189 10.2148 0.309189C10.2148 0.309189 12.1303 -0.126818 13.7264 0.0366886C15.3226 0.200196 16.4932 0.705743 17.238 1.12673C17.9829 1.54771 19.5286 2.76179 20.3772 4.34236C21.2258 5.92293 21.1753 7.93952 21.1221 9.35657C20.058 9.35657 16.1207 11.3732 16.1207 11.3732C16.1207 11.3732 17.2913 9.57458 17.3445 7.23098C17.3977 4.88739 16.706 3.63383 15.8015 2.54379Z" fill="#333333"/>
<path d="M10.43 9.91935L10.1108 17.1137L11.2813 16.3506L11.0685 9.91935C11.104 9.90118 11.1217 9.91935 11.2281 9.81034C11.2813 9.75584 11.2813 9.75584 11.3345 9.64686L11.3345 9.64684C11.5473 9.86485 11.8537 10.0693 12.2922 10.1919C12.8775 10.3554 13.6224 10.4644 13.9416 10.4644C14.1544 10.4644 14.1544 10.3009 14.1012 10.2464C14.0171 10.1602 13.8459 9.91935 12.8775 9.53783C12.1858 9.26532 11.9198 9.26532 11.2813 9.10181C11.2813 9.02914 11.2494 8.85111 11.1217 8.7203C10.994 8.5895 10.8557 8.55679 10.8025 8.55679C10.8025 8.12077 10.7407 7.59511 10.5896 6.97622C10.43 6.32219 10.2172 5.88618 10.1108 5.66817C10.0256 5.49376 9.91569 5.57733 9.89795 5.61367C9.84475 5.77717 9.84475 6.64921 9.95116 7.24874C10.0576 7.84826 10.2349 8.28428 10.3236 8.66579C10.2172 8.7203 10.1108 8.8293 10.0576 8.99281C10.009 9.14195 10.0753 9.33799 10.1108 9.42883C9.73834 9.68317 9.5669 9.75584 9.04666 10.1919C8.46139 10.6824 7.98253 11.3364 7.92933 11.5544C7.88676 11.7288 8.03574 11.7397 8.14215 11.7179C8.40818 11.6634 8.66126 11.5248 8.94024 11.2819C10.0044 10.3554 10.164 10.1919 10.3236 9.91935L10.43 9.91935Z" fill="#333333"/>
<path d="M35.01 14.6615C34.5418 14.6615 34.2119 14.5525 34.1055 14.498V4.14258H36.0741L40.3838 11.9364V4.14258H41.9268V14.498H40.171L35.5952 6.64969V14.498C35.5952 14.5525 35.4782 14.6615 35.01 14.6615Z" fill="#333333"/>
<path d="M50.7578 3.97852H52.3008V9.97377H53.1521L55.2271 7.13965H56.9829L54.3226 10.6823L57.3022 14.552H55.6528L53.1521 11.3363H52.3008V14.4975C52.2121 14.552 51.939 14.661 51.5559 14.661C51.1728 14.661 50.8642 14.552 50.7578 14.4975V3.97852Z" fill="#333333"/>
<path d="M59.1644 7.13965H57.6746C58.1712 8.92006 59.2708 12.688 59.4836 13.5164C59.7496 14.552 59.9625 14.4975 60.1221 14.6065C60.2817 14.7155 60.8138 14.7155 61.2926 14.661C61.6757 14.6174 61.9666 14.1886 61.9843 14.0069L62.9952 9.21074C63.3854 10.9003 63.8465 14.1159 64.3254 14.443C64.5132 14.5712 64.8574 14.77 65.5491 14.661C66.1024 14.5738 66.3472 14.1705 66.3472 14.0069L68.3158 7.13965H66.7728L65.2299 13.1349L63.6337 7.24866H62.2503L60.8138 13.1349L59.1644 7.13965Z" fill="#333333"/>
<path fill-rule="evenodd" clip-rule="evenodd" d="M73.7425 7.19439C74.4874 7.5214 74.686 7.72297 75.1259 8.22993C75.7407 8.93846 75.9772 9.8105 76.0304 10.4645C76.0746 11.0077 76.0134 11.8131 75.7112 12.5356C75.5515 12.9171 74.9427 13.9262 74.115 14.3887C73.2371 14.8792 72.1996 14.7702 71.7207 14.7157C71.2419 14.6612 70.1245 14.2797 69.4861 13.4622C68.8476 12.6446 68.6827 11.7186 68.6348 11.2276C68.5603 10.4645 68.6348 9.756 69.0604 8.88396C69.232 8.53243 69.8053 7.68491 70.6034 7.30339C71.4015 6.92188 71.9867 6.92188 72.3592 6.92188C72.6571 6.92188 73.2493 6.97784 73.7425 7.19439ZM74.4874 10.192C74.6722 10.9491 74.5136 11.6511 74.381 11.9906C74.1682 12.5356 73.5695 13.1897 73.0509 13.3532C72.3592 13.5712 71.6325 13.4339 71.4015 13.2986C71.029 13.0806 70.497 12.6446 70.2841 11.8816C70.0713 11.1186 70.1117 10.53 70.1777 10.192C70.3864 9.12306 71.0822 8.22993 72.3592 8.22993C73.7517 8.22994 74.2746 9.31998 74.4874 10.192Z" fill="#333333"/>
<path fill-rule="evenodd" clip-rule="evenodd" d="M44.1606 7.1398C44.0896 7.23064 43.9478 7.48862 43.9478 7.79383C43.9478 8.09905 44.0542 8.32069 44.1074 8.39336L46.9273 8.44786C47.2465 8.44786 47.3529 8.50236 47.619 8.72037C47.7852 8.85656 47.8318 8.99288 47.8318 9.10189V10.0284C47.774 10.013 47.7155 9.99645 47.6548 9.97928C47.2869 9.87528 46.8373 9.74819 45.9696 9.70141C45.332 9.66704 44.533 9.91942 44.1074 10.1919C43.6817 10.4644 43.2561 11.0095 43.0965 11.6635C42.9368 12.3175 43.0965 13.2441 43.1497 13.4076C43.2029 13.5711 43.5221 14.2796 44.4266 14.6066C45.2631 14.9091 45.9176 14.8386 46.4321 14.7831C46.474 14.7786 46.5149 14.7742 46.5549 14.7701C46.9805 14.7265 47.6012 14.4431 47.8318 14.3341C47.9382 14.4613 48.2468 14.7156 48.6299 14.7156C49.013 14.7156 49.2861 14.5703 49.3748 14.4976L49.3216 9.10189C49.2684 7.68483 48.2257 7.25469 47.4594 7.19431C46.6931 7.13392 44.1606 7.1398 44.1606 7.1398ZM47.6548 11.2794C47.7065 11.2972 47.7594 11.3153 47.8318 11.3365L47.8318 13.1351C47.8017 13.1474 47.7689 13.161 47.7339 13.1756C47.4602 13.2893 47.0516 13.459 46.7145 13.5166C46.076 13.6256 45.6504 13.6256 45.3311 13.5166C45.1054 13.4395 44.7044 13.2398 44.5862 12.9171C44.4266 12.481 44.4798 11.9905 44.533 11.7725C44.5862 11.5545 44.7567 11.3909 45.0119 11.2275C45.4375 10.955 45.8812 10.8824 47.0337 11.1185C47.4105 11.1957 47.5294 11.2364 47.6548 11.2794Z" fill="#333333"/>
<path fill-rule="evenodd" clip-rule="evenodd" d="M132.446 7.1398C132.375 7.23064 132.233 7.48862 132.233 7.79383C132.233 8.09905 132.339 8.32069 132.393 8.39336L135.212 8.44786C135.532 8.44786 135.638 8.50236 135.904 8.72037C136.07 8.85656 136.117 8.99288 136.117 9.10189V10.0284C136.059 10.013 136.001 9.99645 135.94 9.97928C135.572 9.87528 135.122 9.74819 134.255 9.70141C133.617 9.66704 132.818 9.91942 132.393 10.1919C131.967 10.4644 131.541 11.0095 131.382 11.6635C131.222 12.3175 131.382 13.2441 131.435 13.4076C131.488 13.5711 131.807 14.2796 132.712 14.6066C133.548 14.9091 134.203 14.8386 134.717 14.7831C134.759 14.7786 134.8 14.7742 134.84 14.7701C135.266 14.7265 135.886 14.4431 136.117 14.3341C136.223 14.4613 136.532 14.7156 136.915 14.7156C137.298 14.7156 137.571 14.5703 137.66 14.4976L137.607 9.10189C137.554 7.68483 136.511 7.25469 135.745 7.19431C134.978 7.13392 132.446 7.1398 132.446 7.1398ZM135.94 11.2794C135.992 11.2972 136.045 11.3153 136.117 11.3365L136.117 13.1351C136.087 13.1474 136.054 13.161 136.019 13.1756C135.745 13.2893 135.337 13.459 135 13.5166C134.361 13.6256 133.936 13.6256 133.616 13.5166C133.391 13.4395 132.99 13.2398 132.871 12.9171C132.712 12.481 132.765 11.9905 132.818 11.7725C132.871 11.5545 133.042 11.3909 133.297 11.2275C133.723 10.955 134.166 10.8824 135.319 11.1185C135.696 11.1957 135.815 11.2364 135.94 11.2794Z" fill="#333333"/>
<path d="M78.7437 3.92383H77.2539V14.4973C77.3426 14.57 77.6051 14.7153 77.9456 14.7153C78.2861 14.7153 78.6195 14.5336 78.7437 14.4428V3.92383Z" fill="#333333"/>
<path d="M94.2827 3.92383H92.793V14.4973C92.8816 14.57 93.1441 14.7153 93.4846 14.7153C93.8252 14.7153 94.1586 14.5336 94.2827 14.4428V3.92383Z" fill="#333333"/>
<path fill-rule="evenodd" clip-rule="evenodd" d="M89.1727 4.25074C88.552 4.14174 84.0117 4.19624 84.0117 4.19624L84.0117 12.9711C84.0117 13.7677 84.9162 14.5517 85.6079 14.5517C85.8571 14.5517 86.1743 14.5616 86.5219 14.5725H86.5219C87.5842 14.6058 88.9307 14.648 89.4919 14.4427C90.4597 14.0886 90.9425 13.5941 91.2478 13.0256C91.833 11.9356 91.6701 9.86278 90.1836 9.10145C91.2078 8.402 91.4074 7.62989 91.301 6.37634C91.1807 4.95928 89.7934 4.35975 89.1727 4.25074ZM85.5064 8.49685C85.5291 8.41796 85.5196 7.54202 85.5105 6.7173C85.506 6.29934 85.5015 5.89454 85.5015 5.6133C86.3351 5.59514 88.1192 5.5697 88.5874 5.6133C89.1727 5.66781 89.5355 6.06905 89.6516 6.26733C89.8112 6.53984 89.8372 7.366 89.7048 7.73889C89.492 8.33842 88.8534 8.50712 88.5342 8.50193C87.4632 8.48451 85.62 8.46042 85.5064 8.49685ZM85.5015 8.50193C85.5033 8.50372 85.5049 8.50195 85.5064 8.49685C85.5015 8.49843 85.4998 8.50012 85.5015 8.50193ZM85.5547 9.80998V12.9711C85.5369 13.062 85.5653 13.2436 85.8207 13.2436C85.8923 13.2436 86.0549 13.2464 86.2708 13.25C87.0171 13.2626 88.3995 13.2859 88.8534 13.2436C89.021 13.228 89.7579 12.9711 89.9708 12.1536C90.0813 11.729 90.024 10.9 89.9176 10.6275C89.8111 10.355 89.4919 9.80998 88.6406 9.80998H85.5547Z" fill="#333333"/>
<path d="M97.2085 7.13965H95.7188V11.4453C95.7188 12.6444 95.8042 13.1573 96.1444 13.6799C96.4637 14.1704 96.6816 14.372 97.3682 14.6065C98.1663 14.879 98.9111 14.77 99.2836 14.661C99.6929 14.5412 100.17 14.334 100.454 14.1159C100.454 14.1704 100.465 14.3667 100.507 14.4975C100.561 14.661 100.827 14.7155 101.146 14.7155C101.731 14.7155 101.891 14.552 101.891 14.3885V7.13965H100.401C100.401 8.84739 100.443 12.2956 100.401 12.6444C100.348 13.0804 99.7624 13.2984 99.5496 13.3529C99.3368 13.4074 98.4855 13.5709 97.9002 13.2984C97.432 13.0804 97.2617 12.7534 97.2617 12.3719L97.2085 7.13965Z" fill="#333333"/>
<path d="M140.676 7.08496H139.133V14.4428C139.133 14.6063 139.665 14.7153 140.037 14.7153C140.335 14.7153 140.552 14.5336 140.623 14.4428C140.623 13.0075 140.654 10.3469 140.676 10.0826C140.729 9.42856 140.942 9.26505 141.208 8.93804C141.474 8.61103 142.006 8.44752 142.219 8.44752C142.513 8.44752 143.176 8.50202 144.028 8.39302C144.113 8.21861 144.063 7.43014 144.028 7.13946C143.372 7.08496 141.989 7.10847 141.633 7.24847C140.942 7.52098 140.835 7.84799 140.676 8.066V7.08496Z" fill="#333333"/>
<path d="M146.209 4.95996V7.08555H144.719V8.33911H146.209V12.9173C146.209 13.8324 146.687 14.4979 147.751 14.5524C148.337 14.5705 149.188 14.596 149.401 14.5524C149.667 14.4979 149.667 14.2254 149.667 13.7348C149.667 13.3424 149.454 13.2443 149.348 13.2443C148.709 13.2988 148.241 13.2879 148.071 13.2443C147.9 13.2007 147.698 13.0808 147.698 12.7254V8.44811H149.561C149.631 8.41178 149.731 8.1538 149.773 7.84858C149.816 7.54337 149.738 7.24906 149.667 7.08555H147.698V4.95996H146.209Z" fill="#333333"/>
<path d="M116.47 4.19629H114.82V14.4427C114.927 14.5336 115.246 14.7152 115.672 14.7152C116.097 14.7152 116.416 14.5336 116.523 14.4427V10.028H120.992V14.4427C121.116 14.5336 121.45 14.7152 121.79 14.7152C122.131 14.7152 122.464 14.5336 122.588 14.4427V4.19629H120.939V8.50197H116.47V4.19629Z" fill="#333333"/>
<path fill-rule="evenodd" clip-rule="evenodd" d="M104.604 11.6093L109.287 11.6093C109.606 11.6093 109.867 11.4974 109.925 10.9008C109.978 10.3558 109.85 9.54872 109.712 9.21123C109.446 8.5572 108.779 7.64292 108.01 7.24915C107.265 6.86763 106.299 6.88205 105.669 7.03114C104.977 7.19465 104.338 7.52166 103.753 8.3937C103.168 9.26574 102.955 9.91976 103.062 11.3913C103.094 11.8395 103.221 12.6994 103.913 13.4624C104.322 13.9143 104.924 14.5525 106.307 14.716C107.69 14.8795 108.648 14.5525 108.861 14.4435L108.861 14.4434C109.074 14.3344 109.499 14.1164 109.499 14.0074C109.499 13.9202 109.18 13.2989 109.021 13.0264L109.005 13.032C108.546 13.1948 107.943 13.4085 106.786 13.4624C106.254 13.4872 105.403 13.1899 104.977 12.6449C104.636 12.2089 104.604 11.8092 104.604 11.6093ZM104.605 10.1378C104.551 9.81076 104.977 8.28469 106.467 8.28469C108.169 8.28469 108.382 9.70175 108.382 10.1378H104.605Z" fill="#333333"/>
<path fill-rule="evenodd" clip-rule="evenodd" d="M125.327 11.6093L130.009 11.6093C130.329 11.6093 130.59 11.4974 130.648 10.9008C130.701 10.3558 130.572 9.54872 130.435 9.21123C130.169 8.5572 129.501 7.64292 128.732 7.24915C127.987 6.86763 127.022 6.88205 126.391 7.03114C125.7 7.19465 125.061 7.52166 124.476 8.3937C123.891 9.26574 123.678 9.91976 123.784 11.3913C123.817 11.8395 123.944 12.6994 124.635 13.4624C125.045 13.9143 125.646 14.5525 127.03 14.716C128.413 14.8795 129.371 14.5525 129.584 14.4435L129.584 14.4434C129.797 14.3344 130.222 14.1164 130.222 14.0074C130.222 13.9202 129.903 13.2989 129.743 13.0264L129.728 13.032C129.268 13.1948 128.666 13.4085 127.509 13.4624C126.977 13.4872 126.125 13.1899 125.7 12.6449C125.359 12.2089 125.327 11.8092 125.327 11.6093ZM125.327 10.1378C125.274 9.81076 125.7 8.28469 127.189 8.28469C128.892 8.28469 129.105 9.70175 129.105 10.1378H125.327Z" fill="#333333"/>
</svg>
