<svg width="40" height="40" viewBox="0 0 40 40" fill="none" xmlns="http://www.w3.org/2000/svg">
<rect x="0.5" y="0.5" width="39" height="39" rx="19.5" fill="#FCFCFC"/>
<rect x="0.5" y="0.5" width="39" height="39" rx="19.5" stroke="#CCCCCC"/>
<path d="M14.9672 19.9133L22.5082 26.0117C23.3971 26.7306 23.8416 27.09 24.1623 27.0721C24.44 27.0566 24.6916 26.9036 24.8332 26.6642C24.9966 26.3877 24.882 25.8277 24.6528 24.7076L24.0373 21.6995C23.9883 21.46 23.9638 21.3403 23.9727 21.224C23.9805 21.1209 24.0075 21.0203 24.0522 20.9271C24.1027 20.8219 24.1838 20.7305 24.3459 20.5476L26.3831 18.2503C27.1416 17.3949 27.5208 16.9672 27.5175 16.646C27.5146 16.3679 27.3732 16.1096 27.1405 15.9573C26.8717 15.7814 26.307 15.8705 25.1778 16.0486L15.5979 17.5595C14.6593 17.7075 14.1901 17.7815 13.9915 18.0066C13.819 18.2022 13.748 18.4672 13.7996 18.7228C13.859 19.0171 14.2284 19.3158 14.9672 19.9133Z" fill="#666666"/>
</svg>
