<svg width="40" height="40" viewBox="0 0 40 40" fill="none" xmlns="http://www.w3.org/2000/svg">
<rect x="0.5" y="0.5" width="39" height="39" rx="19.5" fill="#FCFCFC"/>
<rect x="0.5" y="0.5" width="39" height="39" rx="19.5" stroke="#DF2B2E"/>
<path d="M22.5915 15.6827L13.5396 19.1642C12.4726 19.5746 11.939 19.7798 11.7942 20.0665C11.6688 20.3148 11.6755 20.6092 11.812 20.8515C11.9697 21.1313 12.512 21.3121 13.5966 21.6736L16.5095 22.6446C16.7414 22.7219 16.8573 22.7605 16.9536 22.8264C17.0389 22.8847 17.1126 22.9584 17.171 23.0437C17.2368 23.14 17.2755 23.2559 17.3528 23.4878L18.3237 26.4007C18.6853 27.4853 18.866 28.0276 19.1458 28.1853C19.3881 28.3219 19.6826 28.3285 19.9308 28.2031C20.2175 28.0583 20.4227 27.5248 20.8331 26.4577L24.3146 17.4058C24.6557 16.519 24.8262 16.0756 24.7305 15.7911C24.6474 15.5439 24.4534 15.3499 24.2063 15.2668C23.9217 15.1711 23.4783 15.3417 22.5915 15.6827Z" fill="#DF2B2E"/>
</svg>
