<svg width="40" height="40" viewBox="0 0 40 40" fill="none" xmlns="http://www.w3.org/2000/svg">
<rect x="0.5" y="0.5" width="39" height="39" rx="19.5" fill="#FCFCFC"/>
<rect x="0.5" y="0.5" width="39" height="39" rx="19.5" stroke="#F0CF3E"/>
<path d="M23.4982 23.6203L22.4781 13.9758C22.3578 12.8389 22.2977 12.2704 22.0583 12.0563C21.851 11.8709 21.5648 11.8012 21.2955 11.8704C20.9843 11.9503 20.6694 12.4273 20.0395 13.3814L18.3477 15.9437C18.213 16.1477 18.1457 16.2497 18.0571 16.3256C17.9787 16.3929 17.8884 16.445 17.791 16.4793C17.6809 16.518 17.5589 16.5253 17.3149 16.54L14.25 16.7239C13.1088 16.7924 12.5382 16.8267 12.3134 17.0562C12.1188 17.2548 12.0361 17.5375 12.093 17.8098C12.1587 18.1242 12.621 18.4605 13.5454 19.1331L21.3878 24.8387C22.1561 25.3977 22.5403 25.6772 22.8399 25.6584C23.1001 25.6421 23.3377 25.5049 23.482 25.2877C23.6481 25.0376 23.5981 24.5652 23.4982 23.6203Z" fill="#F0CF3E"/>
</svg>
