<svg width="24" height="24" viewBox="0 0 24 24" fill="none" xmlns="http://www.w3.org/2000/svg">
<path d="M3 18C3.54 18.5 4.08 19 5.25 19C7.5 19 7.5 17 9.75 17C10.92 17 11.46 17.5 12 18C12.54 18.5 13.08 19 14.25 19C16.5 19 16.5 17 18.75 17C19.92 17 20.46 17.5 21 18" stroke="white" stroke-width="2" stroke-linecap="round" stroke-linejoin="round"/>
<path d="M6.5 18L4.5 12.5L6.5 11.3M12 8V13M12 8V5.5M12 8L6.5 11.3M12 8L17.6819 11.4092M18.5 17L19.5 12.5L17.6819 11.4092M6.5 11.3L7 6L12 4L17 6L17.6819 11.4092" stroke="white" stroke-width="2" stroke-linecap="round"/>
</svg>
