<svg width="60" height="61" viewBox="0 0 60 61" fill="none" xmlns="http://www.w3.org/2000/svg">
<path d="M30.001 25.5003V35.5003M30.001 43.0003H30.026M18.5972 50.5003H41.4049C45.8779 50.5003 48.1144 50.5003 49.4223 49.5598C50.5635 48.7393 51.3067 47.4764 51.4697 46.0803C51.6566 44.4803 50.5705 42.5252 48.3982 38.6151L36.9943 18.0881C34.7111 13.9784 33.5695 11.9236 32.0648 11.2417C30.7532 10.6473 29.2489 10.6473 27.9373 11.2417C26.4325 11.9236 25.291 13.9784 23.0078 18.0881L11.6039 38.6151C9.43162 42.5252 8.34549 44.4803 8.53237 46.0803C8.69542 47.4764 9.43855 48.7393 10.5797 49.5598C11.8877 50.5003 14.1242 50.5003 18.5972 50.5003Z" stroke="#DF2B2E" stroke-width="2" stroke-linecap="round" stroke-linejoin="round"/>
</svg>
