<svg width="24" height="24" viewBox="0 0 24 24" fill="none" xmlns="http://www.w3.org/2000/svg">
<path d="M3 20C3.54 20.5 4.08 21 5.25 21C7.5 21 7.5 19 9.75 19C10.92 19 11.46 19.5 12 20C12.54 20.5 13.08 21 14.25 21C16.5 21 16.5 19 18.75 19C19.92 19 20.46 19.5 21 20M3 15C3.54 15.5 4.08 16 5.25 16C7.5 16 7.5 14 9.75 14C10.92 14 11.46 14.5 12 15C12.54 15.5 13.08 16 14.25 16C16.5 16 16.5 14 18.75 14C19.92 14 20.46 14.5 21 15M12 3V11M12 11L9 8M12 11L15 8" stroke="#333333" stroke-width="2" stroke-linecap="round" stroke-linejoin="round"/>
</svg>
