<svg width="24" height="24" viewBox="0 0 24 24" fill="none" xmlns="http://www.w3.org/2000/svg">
<path d="M15.5798 11.9997C15.5798 13.9797 13.9798 15.5797 11.9998 15.5797C10.0198 15.5797 8.41984 13.9797 8.41984 11.9997C8.41984 10.0197 10.0198 8.41973 11.9998 8.41973C13.9798 8.41973 15.5798 10.0197 15.5798 11.9997Z" stroke="white" stroke-width="2" stroke-linecap="round" stroke-linejoin="round"/>
<path d="M11.9998 20.2697C15.5298 20.2697 18.8198 18.1897 21.1098 14.5897C22.0098 13.1797 22.0098 10.8097 21.1098 9.39973C18.8198 5.79973 15.5298 3.71973 11.9998 3.71973C8.46984 3.71973 5.17984 5.79973 2.88984 9.39973C1.98984 10.8097 1.98984 13.1797 2.88984 14.5897C5.17984 18.1897 8.46984 20.2697 11.9998 20.2697Z" stroke="white" stroke-width="2" stroke-linecap="round" stroke-linejoin="round"/>
</svg>
